<svg width="24" height="24" viewBox="0 0 24 24" fill="none" xmlns="http://www.w3.org/2000/svg">
<path d="M2.81333 15.4667L1.54667 20.9333C1.50297 21.1332 1.50447 21.3402 1.55105 21.5394C1.59763 21.7386 1.68812 21.9249 1.81591 22.0846C1.94369 22.2443 2.10555 22.3735 2.28965 22.4627C2.47375 22.5518 2.67545 22.5988 2.88 22.6C2.97531 22.6096 3.07135 22.6096 3.16667 22.6L8.66667 21.3333L19.2267 10.8133L13.3333 4.93333L2.81333 15.4667Z" fill="white"/>
<path d="M22.5467 5.54667L18.6133 1.61333C18.3547 1.35604 18.0048 1.21161 17.64 1.21161C17.2752 1.21161 16.9253 1.35604 16.6667 1.61333L14.48 3.8L20.3667 9.68667L22.5533 7.5C22.6813 7.37139 22.7826 7.2188 22.8516 7.05098C22.9205 6.88315 22.9557 6.70338 22.9551 6.52195C22.9544 6.34052 22.918 6.161 22.848 5.99365C22.7779 5.82629 22.6755 5.6744 22.5467 5.54667V5.54667Z" fill="white"/>
</svg>
