<svg width="24" height="24" viewBox="0 0 24 24" fill="none" xmlns="http://www.w3.org/2000/svg">
<path d="M19.9916 6.3C20.7435 5.52965 20.7435 4.28464 19.9916 3.5143C19.2397 2.74395 18.0206 2.74395 17.2687 3.5143L14.5458 6.30398C13.7938 7.07433 13.7938 8.32331 14.5458 9.09366C15.2977 9.86401 16.5168 9.86401 17.2687 9.09366L19.9916 6.3Z" fill="white"/>
<path d="M21.5002 13.9726C22.5636 13.9726 23.4256 13.0894 23.4256 12C23.4256 10.9106 22.5636 10.0274 21.5002 10.0274H17.6494C16.5861 10.0274 15.724 10.9106 15.724 12C15.724 13.0894 16.5861 13.9726 17.6494 13.9726H21.5002Z" fill="white"/>
<path d="M17.2744 20.4837C18.0263 21.2541 19.2454 21.2541 19.9973 20.4837C20.7492 19.7134 20.7492 18.4644 19.9973 17.694L17.2744 14.9044C16.5225 14.134 15.3034 14.134 14.5515 14.9044C13.7996 15.6747 13.7996 16.9237 14.5515 17.694L17.2744 20.4837Z" fill="white"/>
<path d="M9.78741 22.0274C9.78741 23.1168 10.6494 24 11.7128 24C12.7762 24 13.6382 23.1168 13.6382 22.0274V18.0822C13.6382 16.9928 12.7762 16.1096 11.7128 16.1096C10.6494 16.1096 9.78741 16.9928 9.78741 18.0822V22.0274Z" fill="white"/>
<path d="M3.43027 17.696C2.67836 18.4664 2.67836 19.7154 3.43027 20.4857C4.18218 21.2561 5.40127 21.2561 6.15318 20.4857L8.8761 17.696C9.62801 16.9257 9.62801 15.6767 8.8761 14.9063C8.12418 14.136 6.90509 14.136 6.15318 14.9063L3.43027 17.696Z" fill="white"/>
<path d="M1.92539 10.0274C0.862027 10.0274 0 10.9106 0 12C0 13.0894 0.862027 13.9726 1.92539 13.9726H5.77617C6.83954 13.9726 7.70157 13.0894 7.70157 12C7.70157 10.9106 6.83954 10.0274 5.77617 10.0274H1.92539Z" fill="white"/>
<path d="M6.15494 3.51631C5.40303 2.74597 4.18394 2.74597 3.43203 3.51631C2.68012 4.28666 2.68012 5.53564 3.43203 6.30599L6.15494 9.09567C6.90686 9.86602 8.12595 9.86602 8.87786 9.09567C9.62977 8.32532 9.62977 7.07634 8.87786 6.30599L6.15494 3.51631Z" fill="white"/>
<path d="M13.6382 1.9726C13.6382 0.883164 12.7762 0 11.7128 0C10.6494 0 9.7874 0.883164 9.7874 1.9726V5.9178C9.7874 7.00724 10.6494 7.8904 11.7128 7.8904C12.7762 7.8904 13.6382 7.00724 13.6382 5.9178V1.9726Z" fill="white"/>
<path d="M11.6326 3.94522C10.1093 3.94522 8.62031 4.40798 7.3538 5.27499C6.08728 6.142 5.10016 7.37431 4.51724 8.8161C3.93433 10.2579 3.78181 11.8444 4.07898 13.375C4.37615 14.9056 5.10965 16.3115 6.18673 17.415C7.26381 18.5185 8.6361 19.27 10.1301 19.5744C11.624 19.8789 13.1725 19.7226 14.5798 19.1254C15.9871 18.5282 17.1899 17.5169 18.0362 16.2193C18.8824 14.9217 19.3341 13.3962 19.3341 11.8356C19.3341 9.74296 18.5227 7.736 17.0784 6.25626C15.6341 4.77653 13.6751 3.94522 11.6326 3.94522ZM11.6326 14.4658C11.1248 14.4658 10.6285 14.3115 10.2063 14.0225C9.78413 13.7335 9.45509 13.3227 9.26079 12.8421C9.06648 12.3615 9.01564 11.8327 9.1147 11.3225C9.21375 10.8123 9.45826 10.3437 9.81728 9.97584C10.1763 9.60801 10.6337 9.35751 11.1317 9.25603C11.6297 9.15454 12.1459 9.20663 12.615 9.4057C13.0841 9.60476 13.485 9.94188 13.7671 10.3744C14.0492 10.8069 14.1997 11.3154 14.1997 11.8356C14.1997 12.5332 13.9293 13.2022 13.4478 13.6954C12.9664 14.1887 12.3134 14.4658 11.6326 14.4658Z" fill="white"/>
</svg>
