<svg width="24" height="24" viewBox="0 0 24 24" xmlns="http://www.w3.org/2000/svg">
<path d="M15.75 18H8.25C7.85218 18 7.47064 18.158 7.18934 18.4393C6.90804 18.7206 6.75 19.1022 6.75 19.5V21C6.75 21.3978 6.90804 21.7794 7.18934 22.0607C7.47064 22.342 7.85218 22.5 8.25 22.5H15.75C16.1478 22.5 16.5294 22.342 16.8107 22.0607C17.092 21.7794 17.25 21.3978 17.25 21V19.5C17.25 19.1022 17.092 18.7206 16.8107 18.4393C16.5294 18.158 16.1478 18 15.75 18ZM15.75 21H8.25V19.5H15.75V21Z" />
<path d="M21.5303 10.7198L12.5303 1.71975C12.3896 1.57915 12.1989 1.50016 12 1.50016C11.8011 1.50016 11.6104 1.57915 11.4698 1.71975L2.46975 10.7198C2.36489 10.8246 2.29349 10.9583 2.26456 11.1037C2.23564 11.2492 2.25049 11.4 2.30724 11.537C2.36399 11.674 2.4601 11.7911 2.58341 11.8736C2.70671 11.956 2.85169 12 3 12H6.75V15C6.7504 15.3977 6.90856 15.779 7.18978 16.0602C7.471 16.3414 7.8523 16.4996 8.25 16.5H15.75C16.1476 16.4994 16.5288 16.3412 16.81 16.06C17.0912 15.7788 17.2494 15.3976 17.25 15V12H21C21.1483 12 21.2933 11.956 21.4166 11.8736C21.5399 11.7911 21.636 11.674 21.6928 11.537C21.7495 11.4 21.7644 11.2492 21.7354 11.1037C21.7065 10.9583 21.6351 10.8246 21.5303 10.7198ZM15.75 10.5V15H8.25V10.5H4.8105L12 3.3105L19.1895 10.5H15.75Z" />
</svg>
